<?xml version="1.0" encoding="utf-8"?>
<!-- Generator: Adobe Illustrator 16.0.0, SVG Export Plug-In . SVG Version: 6.00 Build 0)  -->
<!DOCTYPE svg PUBLIC "-//W3C//DTD SVG 1.1//EN" "http://www.w3.org/Graphics/SVG/1.1/DTD/svg11.dtd">
<svg version="1.1" id="Layer_1" xmlns="http://www.w3.org/2000/svg" xmlns:xlink="http://www.w3.org/1999/xlink" x="0px" y="0px"
	 width="80px" height="80px" viewBox="360.763 600.02 80 80" enable-background="new 360.763 600.02 80 80" xml:space="preserve">
<g>
	<path fill="#79C043" d="M436.675,600.02h-72.021c-2.038,0-3.891,1.839-3.891,4.084v71.839c0,2.234,1.853,4.077,3.891,4.077h72.021
		c2.252,0,4.088-1.843,4.088-4.077v-71.839C440.763,601.858,438.927,600.02,436.675,600.02z M435.663,677.047l-69.772,0.023
		c-1.247,0.028-2.244-0.951-2.259-2.188l-0.033-69.646c-0.028-1.214,0.99-2.22,2.226-2.225l69.797-0.046
		c1.271-0.014,2.269,0.934,2.247,2.214l0.061,69.601C437.94,676.049,436.936,677.029,435.663,677.047z"/>
	<path fill="#79C043" d="M384.598,656.316c-0.742-0.066-1.485-0.135-2.229-0.201c-3.43-0.313-6.794-0.959-10.096-1.935
		c-0.507-0.148-1.026-0.266-1.52-0.452c-0.151-0.058-0.331-0.296-0.332-0.452c-0.008-3.319-0.127-6.647,0.063-9.958
		c0.194-3.398,1.863-6.112,4.623-8.14c1.949-1.431,4.15-2.114,6.551-2.133c2.762-0.021,5.531-0.117,8.281,0.057
		c4.512,0.284,7.716,2.621,9.652,6.681c0.734,1.543,0.973,3.199,0.979,4.891c0.01,2.755-0.005,5.51,0.012,8.264
		c0.003,0.382-0.096,0.63-0.46,0.755c-1.479,0.51-2.939,1.086-4.442,1.516c-2.256,0.645-4.587,0.881-6.924,1.035
		c-0.106,0.008-0.211,0.049-0.316,0.073C387.158,656.316,385.879,656.316,384.598,656.316z"/>
	<path fill="#79C043" d="M393.196,621.602c1.438-5.845-2.526-6.989-2.526-6.989s-2.964-5.015-8.745-1.495
		c-0.735,0.447-1.879,1.305-2.561,2.189c-1.094,1.161-1.839,3.049-1.955,6.104c-0.706,0.269-1.261,0.949-1.122,2.616
		c0.145,1.742,1.057,2.483,2.016,2.636c1.294,3.145,3.851,5.737,6.876,5.737c3.031,0,5.594-2.604,6.885-5.761
		c0.913-0.193,1.753-0.945,1.891-2.612C394.065,622.662,393.714,621.96,393.196,621.602z M385.178,630.932
		c-3.498,0-6.314-4.736-6.314-8.66c0-0.538,0.369-2.097,0.402-2.56c0.344-1.946,1.883-2.337,2.457-1.243
		c0.262,0.498,1.031-0.822,1.947-0.811c2.628,0.034,0.97,3.896,5.032-0.482c1.563,1.553,2.373,3.515,2.788,4.969
		c0,0.043,0.001,0.084,0.001,0.127C391.491,626.195,388.676,630.932,385.178,630.932z"/>
	<path fill="#79C043" d="M416.398,656.162c-0.704-0.064-1.409-0.128-2.113-0.191c-3.255-0.297-6.447-0.91-9.581-1.835
		c-0.48-0.142-0.975-0.253-1.441-0.429c-0.145-0.055-0.314-0.281-0.314-0.431c-0.007-3.149-0.121-6.31,0.06-9.449
		c0.185-3.226,1.769-5.802,4.388-7.726c1.85-1.357,3.938-2.007,6.217-2.023c2.62-0.021,5.249-0.111,7.859,0.054
		c4.281,0.27,7.321,2.487,9.159,6.339c0.697,1.464,0.924,3.037,0.93,4.643c0.009,2.612-0.005,5.229,0.011,7.842
		c0.002,0.361-0.092,0.596-0.437,0.715c-1.405,0.484-2.791,1.031-4.218,1.438c-2.142,0.611-4.354,0.836-6.57,0.982
		c-0.102,0.006-0.199,0.046-0.3,0.07C418.829,656.162,417.614,656.162,416.398,656.162z"/>
	<path fill="#79C043" d="M426.426,631.008c-1.375-0.704-2.071-2.021-2.413-2.982c0.093-0.195,0.18-0.395,0.262-0.595
		c0.912-0.193,1.753-0.945,1.89-2.612c0.113-1.365-0.237-2.067-0.756-2.426c1.438-5.845-2.526-6.989-2.526-6.989
		s-2.963-5.015-8.745-1.495c-0.735,0.447-1.879,1.305-2.561,2.189c-1.094,1.161-1.839,3.049-1.955,6.104
		c-0.705,0.269-1.261,0.949-1.123,2.616c0.146,1.742,1.058,2.483,2.017,2.636c0.023,0.059,0.052,0.117,0.077,0.175
		c-0.28,0.958-0.967,2.572-2.542,3.378c-1.335,0.685,4.265,1.313,4.875,0.259c0.017-0.027,0.021-0.062,0.032-0.092
		c1.247,1.229,2.769,2.018,4.434,2.018c1.576,0,3.023-0.708,4.234-1.829C422.512,632.281,427.718,631.67,426.426,631.008z
		 M417.39,631.724c-3.498,0-6.314-4.736-6.314-8.659c0-0.538,0.369-2.098,0.402-2.561c5.116,0.225,7.79-0.763,9.438-2.537
		c1.562,1.553,2.372,3.515,2.787,4.969c0,0.043,0.001,0.084,0.001,0.128C423.703,626.987,420.887,631.724,417.39,631.724z"/>
	<g>
		<path fill="#367137" d="M412.678,668.196c-0.471-0.042-0.939-0.085-1.41-0.128c-2.171-0.196-4.3-0.605-6.391-1.225
			c-0.32-0.095-0.649-0.167-0.961-0.285c-0.097-0.035-0.211-0.188-0.211-0.287c-0.005-2.102-0.08-4.207,0.039-6.304
			c0.123-2.149,1.181-3.869,2.927-5.15c1.233-0.905,2.628-1.339,4.146-1.352c1.748-0.013,3.501-0.074,5.241,0.036
			c2.855,0.18,4.884,1.659,6.109,4.229c0.466,0.976,0.615,2.023,0.619,3.095c0.007,1.744-0.003,3.488,0.009,5.23
			c0.001,0.241-0.063,0.397-0.292,0.479c-0.938,0.322-1.861,0.688-2.813,0.959c-1.428,0.408-2.903,0.557-4.382,0.655
			c-0.068,0.005-0.134,0.03-0.2,0.047C414.299,668.196,413.488,668.196,412.678,668.196z"/>
		<path fill="#367137" d="M413.246,641.906c3.127,0.019,5.602,2.5,5.582,5.599c-0.018,3.085-2.517,5.565-5.602,5.552
			c-3.097-0.013-5.583-2.44-5.595-5.604C407.62,644.379,410.176,641.888,413.246,641.906z"/>
		<path fill="#367137" d="M388.69,668.196c-0.428-0.038-0.855-0.077-1.285-0.116c-1.979-0.18-3.922-0.553-5.827-1.115
			c-0.293-0.086-0.592-0.153-0.877-0.262c-0.087-0.032-0.19-0.171-0.19-0.261c-0.004-1.916-0.074-3.837,0.036-5.747
			c0.11-1.961,1.074-3.528,2.668-4.698c1.125-0.826,2.396-1.22,3.78-1.23c1.595-0.013,3.192-0.066,4.779,0.032
			c2.604,0.164,4.453,1.513,5.57,3.855c0.425,0.891,0.563,1.847,0.564,2.821c0.006,1.591-0.003,3.182,0.007,4.771
			c0.001,0.219-0.056,0.362-0.265,0.435c-0.854,0.294-1.698,0.627-2.564,0.875c-1.303,0.371-2.647,0.508-3.996,0.599
			c-0.063,0.004-0.122,0.026-0.184,0.042C390.169,668.196,389.43,668.196,388.69,668.196z"/>
		<path fill="#367137" d="M383.515,654.316c1.152,0.074,2.104-0.226,2.697-1.243c2.046,1.517,4.082,1.543,6.145,0.085
			c0.52,0.827,1.586,1.298,2.664,1.154c0-0.06,0-0.109,0-0.162c0-1.851,0.009-3.7-0.003-5.552c-0.011-1.779-0.676-3.28-2.047-4.43
			c-1.455-1.217-3.141-1.617-4.992-1.204c-0.862,0.191-1.537,0.67-1.911,1.506c-0.023,0.053-0.095,0.098-0.153,0.122
			c-0.387,0.153-0.742,0.357-1.048,0.645c-0.92,0.868-1.323,1.968-1.344,3.196c-0.03,1.893-0.008,3.782-0.008,5.673
			C383.515,654.169,383.515,654.231,383.515,654.316z"/>
	</g>
</g>
</svg>
