<?xml version="1.0" encoding="utf-8"?>
<!-- Generator: Adobe Illustrator 16.0.0, SVG Export Plug-In . SVG Version: 6.00 Build 0)  -->
<!DOCTYPE svg PUBLIC "-//W3C//DTD SVG 1.1//EN" "http://www.w3.org/Graphics/SVG/1.1/DTD/svg11.dtd">
<svg version="1.1" id="Layer_1" xmlns="http://www.w3.org/2000/svg" xmlns:xlink="http://www.w3.org/1999/xlink" x="0px" y="0px"
	 width="80px" height="80px" viewBox="359.945 600.253 80 80" enable-background="new 359.945 600.253 80 80" xml:space="preserve">
<g>
	<path fill="#A82B7C" d="M435.856,600.253h-72.021c-2.037,0-3.891,1.838-3.891,4.084v71.838c0,2.235,1.854,4.078,3.891,4.078h72.021
		c2.252,0,4.089-1.843,4.089-4.078v-71.838C439.945,602.092,438.108,600.253,435.856,600.253z M434.846,677.281l-69.772,0.022
		c-1.248,0.029-2.244-0.95-2.259-2.188l-0.033-69.646c-0.027-1.214,0.99-2.219,2.226-2.224l69.798-0.046
		c1.271-0.015,2.268,0.933,2.246,2.215l0.061,69.599C437.122,676.283,436.117,677.264,434.846,677.281z"/>
	<g>
		<path fill="#A82B7C" d="M398.674,673.811c-1.069-0.096-2.14-0.192-3.208-0.289c-4.938-0.448-9.782-1.381-14.535-2.784
			c-0.73-0.216-1.479-0.382-2.188-0.65c-0.218-0.082-0.478-0.427-0.478-0.652c-0.01-4.778-0.185-9.571,0.089-14.336
			c0.28-4.894,2.683-8.803,6.657-11.721c2.806-2.061,5.976-3.044,9.432-3.071c3.977-0.029,7.963-0.168,11.925,0.081
			c6.495,0.409,11.107,3.773,13.896,9.619c1.06,2.222,1.402,4.605,1.41,7.042c0.015,3.966-0.007,7.934,0.017,11.898
			c0.003,0.548-0.139,0.902-0.662,1.085c-2.131,0.733-4.232,1.563-6.397,2.182c-3.248,0.928-6.604,1.269-9.97,1.492
			c-0.151,0.01-0.303,0.069-0.454,0.104C402.361,673.811,400.518,673.811,398.674,673.811z"/>
		<path fill="#A82B7C" d="M413.886,635.648c-2.086-1.068-3.143-3.067-3.66-4.526c0.14-0.296,0.271-0.597,0.396-0.9
			c1.386-0.295,2.66-1.436,2.868-3.965c0.17-2.07-0.361-3.136-1.146-3.679c2.182-8.868-3.835-10.605-3.835-10.605
			s-4.496-7.606-13.27-2.269c-1.115,0.679-2.85,1.979-3.883,3.323c-1.66,1.761-2.789,4.624-2.966,9.261
			c-1.071,0.409-1.913,1.439-1.704,3.969c0.219,2.645,1.603,3.771,3.058,3.999c0.037,0.09,0.079,0.177,0.117,0.268
			c-0.425,1.453-1.467,3.901-3.855,5.125c-2.025,1.037,6.471,1.991,7.396,0.392c0.024-0.042,0.031-0.094,0.049-0.14
			c1.895,1.864,4.201,3.06,6.728,3.06c2.393,0,4.588-1.075,6.424-2.774C407.948,637.579,415.847,636.653,413.886,635.648z
			 M400.177,636.735c-5.309,0-9.581-7.188-9.581-13.141c0-0.815,0.561-3.181,0.61-3.883c7.763,0.339,11.819-1.157,14.318-3.849
			c2.369,2.354,3.602,5.332,4.229,7.539c0,0.063,0.002,0.127,0.002,0.191C409.757,629.547,405.483,636.735,400.177,636.735z"/>
	</g>
</g>
</svg>
