<?xml version="1.0" encoding="utf-8"?>
<!-- Generator: Adobe Illustrator 16.0.0, SVG Export Plug-In . SVG Version: 6.00 Build 0)  -->
<!DOCTYPE svg PUBLIC "-//W3C//DTD SVG 1.1//EN" "http://www.w3.org/Graphics/SVG/1.1/DTD/svg11.dtd">
<svg version="1.1" id="Layer_1" xmlns="http://www.w3.org/2000/svg" xmlns:xlink="http://www.w3.org/1999/xlink" x="0px" y="0px"
	 width="30px" height="30px" viewBox="0 0 30 30" enable-background="new 0 0 30 30" xml:space="preserve">
<g>
	<g>
		<g>
			<path fill="#096A80" d="M20.698,8.285c0.918,0,1.666-0.748,1.666-1.666c0-0.92-0.748-1.668-1.666-1.668
				c-0.92,0-1.668,0.748-1.668,1.668C19.03,7.537,19.778,8.285,20.698,8.285z"/>
			<path fill="#096A80" d="M24.36,13.496c0.008-0.031,0.01-0.063,0.004-0.096L23.6,9.346c-0.063-0.381-0.385-0.656-0.768-0.656
				h-4.271c-0.383,0-0.705,0.275-0.766,0.65L17.03,13.4c-0.006,0.033-0.004,0.064,0.004,0.096c-0.006,0.037-0.008,0.072-0.008,0.109
				c0,0.428,0.35,0.777,0.779,0.777c0.373,0,0.697-0.268,0.766-0.643l0.482-3.014l-0.006,9.621c0,0.43,0.35,0.779,0.777,0.779
				c0.43,0,0.779-0.35,0.779-0.779v-4.762h0.188v4.762c0,0.43,0.348,0.779,0.777,0.779s0.777-0.35,0.777-0.779l-0.006-9.621
				l0.484,3.02c0.068,0.369,0.389,0.637,0.764,0.637c0.43,0,0.779-0.35,0.779-0.777C24.368,13.568,24.366,13.531,24.36,13.496z"/>
		</g>
		<path fill="#096A80" d="M9.436,8.355c0.951,0,1.727-0.773,1.727-1.727c0-0.951-0.775-1.725-1.727-1.725
			c-0.953,0-1.727,0.773-1.727,1.725C7.709,7.582,8.483,8.355,9.436,8.355z"/>
		<path fill="#096A80" d="M13.227,13.75c0.008-0.029,0.012-0.064,0.004-0.098l-0.789-4.199c-0.066-0.393-0.398-0.678-0.795-0.678
			H7.223c-0.396,0-0.73,0.285-0.793,0.672l-0.791,4.205c-0.006,0.033-0.006,0.068,0.004,0.098c-0.006,0.039-0.01,0.076-0.01,0.113
			c0,0.445,0.363,0.807,0.809,0.807c0.389,0,0.719-0.277,0.791-0.666l0.5-3.121l-0.008,9.963c0,0.443,0.363,0.805,0.807,0.805
			c0.445,0,0.807-0.361,0.807-0.805v-4.932h0.193v4.932c0,0.443,0.361,0.805,0.807,0.805s0.805-0.361,0.805-0.805l-0.006-9.963
			l0.5,3.127c0.07,0.383,0.402,0.66,0.793,0.66c0.443,0,0.805-0.361,0.805-0.807C13.235,13.826,13.233,13.789,13.227,13.75z"/>
		<g>
			<path fill="#1399D6" d="M15.135,8.568c1.246,0,2.258-1.012,2.258-2.256s-1.012-2.256-2.258-2.256
				c-1.242,0-2.254,1.012-2.254,2.256S13.893,8.568,15.135,8.568z"/>
			<path fill="#1399D6" d="M20.09,15.617c0.014-0.041,0.016-0.084,0.008-0.129l-1.033-5.486c-0.084-0.514-0.521-0.885-1.037-0.885
				h-5.781c-0.518,0-0.955,0.371-1.037,0.877l-1.033,5.494c-0.01,0.045-0.006,0.088,0.006,0.129c-0.008,0.051-0.012,0.1-0.012,0.146
				c0,0.582,0.473,1.055,1.053,1.055c0.51,0,0.943-0.363,1.037-0.869l0.652-4.08l-0.01,13.02c0,0.58,0.475,1.053,1.053,1.053
				c0.584,0,1.057-0.473,1.057-1.053v-6.445h0.25v6.445c0,0.58,0.473,1.053,1.055,1.053c0.58,0,1.053-0.473,1.053-1.053
				l-0.008-13.02l0.654,4.086c0.09,0.5,0.525,0.863,1.033,0.863c0.582,0,1.055-0.473,1.055-1.055
				C20.104,15.717,20.098,15.668,20.09,15.617z"/>
		</g>
	</g>
</g>
<g display="none">
	<g display="inline">
		<path fill="#179EDA" d="M15,8.951c1.17,0,2.123-0.951,2.123-2.121S16.17,4.709,15,4.709S12.879,5.66,12.879,6.83
			S13.831,8.951,15,8.951z"/>
		<path fill="#179EDA" d="M19.661,15.582c0.014-0.037,0.016-0.08,0.008-0.121l-0.973-5.16c-0.081-0.484-0.488-0.834-0.977-0.834
			h-5.438c-0.486,0-0.896,0.352-0.975,0.826l-0.973,5.168c-0.008,0.041-0.006,0.084,0.006,0.121
			c-0.008,0.047-0.012,0.094-0.012,0.139c0,0.547,0.445,0.99,0.992,0.99c0.477,0,0.887-0.342,0.975-0.816l0.612-3.838l-0.007,12.246
			c0,0.547,0.443,0.99,0.99,0.99s0.992-0.443,0.992-0.99V18.24h0.236v6.063c0,0.547,0.443,0.99,0.99,0.99s0.992-0.443,0.992-0.99
			l-0.008-12.246l0.613,3.844c0.088,0.469,0.496,0.811,0.975,0.811c0.547,0,0.99-0.443,0.99-0.99
			C19.672,15.676,19.668,15.629,19.661,15.582z"/>
	</g>
</g>
<g display="none">
	<path display="inline" fill="#E36526" d="M23.889,6.109H6.11v2.223h17.779V6.109z M25,17.221V15l-1.111-5.557H6.11L5,15v2.221H6.11
		v6.668h11.111v-6.668h4.445v6.668h2.223v-6.668H25z M14.999,21.666H8.333v-4.445h6.666V21.666z"/>
</g>
<g display="none">
	<path display="inline" fill="#E36526" d="M22.274,11.363h-2.727V7.727H6.819C5.821,7.727,5,8.545,5,9.545v10h1.818
		c0,1.51,1.219,2.727,2.729,2.727c1.508,0,2.727-1.217,2.727-2.727h5.455c0,1.51,1.217,2.727,2.727,2.727s2.729-1.217,2.729-2.727
		H25V15L22.274,11.363z M9.547,20.908c-0.756,0-1.363-0.609-1.363-1.363s0.607-1.363,1.363-1.363c0.754,0,1.363,0.609,1.363,1.363
		S10.301,20.908,9.547,20.908z M21.819,12.727L23.602,15h-4.055v-2.273H21.819z M20.456,20.908c-0.754,0-1.363-0.609-1.363-1.363
		s0.609-1.363,1.363-1.363s1.363,0.609,1.363,1.363S21.209,20.908,20.456,20.908z"/>
</g>
<g display="none">
	<g display="inline">
		<g>
			<path fill="#179EDA" d="M6.303,11.158c0.566,0,1.027-0.461,1.027-1.027S6.87,9.105,6.303,9.105s-1.025,0.459-1.025,1.025
				S5.737,11.158,6.303,11.158z"/>
			<path fill="#179EDA" d="M8.559,14.367c0.006-0.02,0.008-0.039,0.004-0.059l-0.471-2.498c-0.039-0.234-0.238-0.402-0.475-0.402
				H4.989c-0.237,0-0.436,0.168-0.473,0.4l-0.472,2.5c-0.003,0.02-0.001,0.039,0.005,0.059c-0.005,0.021-0.006,0.045-0.006,0.066
				c0,0.264,0.215,0.479,0.48,0.479c0.23,0,0.428-0.164,0.471-0.395L5.29,12.66l-0.002,5.926c0,0.266,0.214,0.479,0.479,0.479
				c0.266,0,0.48-0.215,0.48-0.479v-2.934H6.36v2.934c0,0.266,0.215,0.479,0.48,0.479s0.48-0.215,0.48-0.479L7.317,12.66
				l0.297,1.859c0.043,0.229,0.238,0.393,0.471,0.393c0.264,0,0.48-0.215,0.48-0.479C8.565,14.412,8.563,14.389,8.559,14.367z"/>
		</g>
		<g>
			
				<circle fill="none" stroke="#179EDA" stroke-width="0.75" stroke-miterlimit="1" stroke-dasharray="1.0024,1.0024" cx="15.291" cy="14.922" r="8.3"/>
		</g>
		<g>
			<path fill="#179EDA" d="M15.292,16.975c0.564,0,1.025-0.461,1.025-1.027s-0.461-1.025-1.025-1.025
				c-0.566,0-1.027,0.459-1.027,1.025S14.725,16.975,15.292,16.975z"/>
			<path fill="#179EDA" d="M17.547,20.184c0.004-0.02,0.006-0.039,0.002-0.059l-0.471-2.498c-0.039-0.232-0.236-0.402-0.473-0.402
				h-2.631c-0.234,0-0.434,0.17-0.471,0.4l-0.473,2.5c-0.002,0.02-0.002,0.039,0.004,0.059c-0.004,0.023-0.006,0.045-0.006,0.066
				c0,0.264,0.215,0.48,0.48,0.48c0.23,0,0.43-0.166,0.473-0.396l0.295-1.857l-0.004,5.926c0,0.266,0.217,0.48,0.48,0.48
				s0.479-0.215,0.479-0.48v-2.934h0.115v2.934c0,0.266,0.215,0.48,0.479,0.48c0.266,0,0.48-0.215,0.48-0.48l-0.004-5.926
				l0.297,1.861c0.043,0.227,0.24,0.393,0.473,0.393c0.264,0,0.479-0.217,0.479-0.48C17.551,20.229,17.549,20.207,17.547,20.184z"/>
		</g>
		<g>
			<path fill="#179EDA" d="M24.59,11.158c0.568,0,1.027-0.461,1.027-1.027s-0.459-1.025-1.027-1.025
				c-0.564,0-1.025,0.459-1.025,1.025S24.026,11.158,24.59,11.158z"/>
			<path fill="#179EDA" d="M26.846,14.367c0.006-0.02,0.006-0.039,0.004-0.059l-0.471-2.498c-0.039-0.234-0.236-0.402-0.473-0.402
				h-2.631c-0.236,0-0.434,0.168-0.473,0.4l-0.471,2.5c-0.004,0.02-0.002,0.039,0.004,0.059c-0.004,0.021-0.006,0.045-0.006,0.066
				c0,0.264,0.217,0.479,0.48,0.479c0.232,0,0.428-0.164,0.471-0.395l0.297-1.857l-0.004,5.926c0,0.266,0.215,0.479,0.48,0.479
				c0.264,0,0.479-0.215,0.479-0.479v-2.934h0.115v2.934c0,0.266,0.215,0.479,0.478,0.479c0.267,0,0.481-0.215,0.481-0.479
				l-0.004-5.926l0.297,1.859c0.043,0.229,0.24,0.393,0.471,0.393c0.266,0,0.48-0.215,0.48-0.479
				C26.852,14.412,26.85,14.389,26.846,14.367z"/>
		</g>
		<g>
			<polygon fill-rule="evenodd" clip-rule="evenodd" fill="#179EDA" points="18.95,7.76 17.592,7.76 16.831,5.119 16.206,5.285 
				16.901,7.76 14.024,7.76 14.717,5.285 14.09,5.119 13.329,7.76 11.874,7.76 11.874,8.65 18.95,8.65 			"/>
			<path fill="#179EDA" d="M12.239,9.053l0.676,3.682h4.994l0.678-3.682H12.239z M14.635,11.951h-0.328V9.838h0.328V11.951z
				 M15.264,11.951h-0.33V9.838h0.33V11.951z M15.891,11.951h-0.33V9.838h0.33V11.951z M16.518,11.951h-0.33V9.838h0.33V11.951z"/>
		</g>
	</g>
</g>
</svg>
